<mxfile host="app.diagrams.net" modified="2023-01-24T19:30:46.795Z" agent="5.0 (Windows NT 10.0; Win64; x64) AppleWebKit/537.36 (KHTML, like Gecko) Chrome/108.0.0.0 Safari/537.36" etag="37rnaPY_AACNDzYrOglt" version="20.8.11" type="github">
  <diagram id="C5RBs43oDa-KdzZeNtuy" name="Page-1">
    <mxGraphModel dx="1290" dy="549" grid="1" gridSize="10" guides="1" tooltips="1" connect="1" arrows="1" fold="1" page="1" pageScale="1" pageWidth="827" pageHeight="1169" math="0" shadow="0">
      <root>
        <mxCell id="WIyWlLk6GJQsqaUBKTNV-0" />
        <mxCell id="WIyWlLk6GJQsqaUBKTNV-1" parent="WIyWlLk6GJQsqaUBKTNV-0" />
        <mxCell id="4Sw3aIR59aRq2CPispGW-35" value="" style="edgeStyle=orthogonalEdgeStyle;rounded=0;orthogonalLoop=1;jettySize=auto;html=1;" parent="WIyWlLk6GJQsqaUBKTNV-1" target="WIyWlLk6GJQsqaUBKTNV-11" edge="1">
          <mxGeometry relative="1" as="geometry">
            <mxPoint x="380" y="770" as="sourcePoint" />
          </mxGeometry>
        </mxCell>
        <mxCell id="4Sw3aIR59aRq2CPispGW-39" value="" style="edgeStyle=orthogonalEdgeStyle;rounded=0;orthogonalLoop=1;jettySize=auto;html=1;entryX=0.5;entryY=0;entryDx=0;entryDy=0;" parent="WIyWlLk6GJQsqaUBKTNV-1" source="WIyWlLk6GJQsqaUBKTNV-11" target="4Sw3aIR59aRq2CPispGW-37" edge="1">
          <mxGeometry relative="1" as="geometry">
            <mxPoint x="520" y="690" as="targetPoint" />
          </mxGeometry>
        </mxCell>
        <mxCell id="4Sw3aIR59aRq2CPispGW-43" value="" style="edgeStyle=orthogonalEdgeStyle;rounded=0;orthogonalLoop=1;jettySize=auto;html=1;entryX=0.5;entryY=0;entryDx=0;entryDy=0;" parent="WIyWlLk6GJQsqaUBKTNV-1" source="WIyWlLk6GJQsqaUBKTNV-11" target="4Sw3aIR59aRq2CPispGW-36" edge="1">
          <mxGeometry relative="1" as="geometry">
            <mxPoint x="240" y="690" as="targetPoint" />
          </mxGeometry>
        </mxCell>
        <mxCell id="WIyWlLk6GJQsqaUBKTNV-11" value="Begin spatial joins" style="rounded=1;whiteSpace=wrap;html=1;fontSize=12;glass=0;strokeWidth=1;shadow=0;fillColor=#dae8fc;strokeColor=#6c8ebf;" parent="WIyWlLk6GJQsqaUBKTNV-1" vertex="1">
          <mxGeometry x="320" y="800" width="120" height="40" as="geometry" />
        </mxCell>
        <mxCell id="4Sw3aIR59aRq2CPispGW-49" value="" style="edgeStyle=orthogonalEdgeStyle;rounded=0;orthogonalLoop=1;jettySize=auto;html=1;fontSize=12;" parent="WIyWlLk6GJQsqaUBKTNV-1" source="4Sw3aIR59aRq2CPispGW-36" target="4Sw3aIR59aRq2CPispGW-48" edge="1">
          <mxGeometry relative="1" as="geometry" />
        </mxCell>
        <mxCell id="4Sw3aIR59aRq2CPispGW-36" value="Google" style="rhombus;whiteSpace=wrap;html=1;shadow=0;fontFamily=Helvetica;fontSize=12;align=center;strokeWidth=1;spacing=6;spacingTop=-4;fillColor=#f8cecc;strokeColor=#b85450;" parent="WIyWlLk6GJQsqaUBKTNV-1" vertex="1">
          <mxGeometry x="180" y="875" width="100" height="80" as="geometry" />
        </mxCell>
        <mxCell id="4Sw3aIR59aRq2CPispGW-51" value="" style="edgeStyle=orthogonalEdgeStyle;rounded=0;orthogonalLoop=1;jettySize=auto;html=1;fontSize=12;" parent="WIyWlLk6GJQsqaUBKTNV-1" source="4Sw3aIR59aRq2CPispGW-37" target="4Sw3aIR59aRq2CPispGW-50" edge="1">
          <mxGeometry relative="1" as="geometry" />
        </mxCell>
        <mxCell id="4Sw3aIR59aRq2CPispGW-37" value="ESRI" style="rhombus;whiteSpace=wrap;html=1;shadow=0;fontFamily=Helvetica;fontSize=12;align=center;strokeWidth=1;spacing=6;spacingTop=-4;fillColor=#e1d5e7;strokeColor=#9673a6;" parent="WIyWlLk6GJQsqaUBKTNV-1" vertex="1">
          <mxGeometry x="470" y="870" width="100" height="80" as="geometry" />
        </mxCell>
        <mxCell id="4Sw3aIR59aRq2CPispGW-68" value="" style="edgeStyle=orthogonalEdgeStyle;rounded=0;orthogonalLoop=1;jettySize=auto;html=1;fontSize=20;fontColor=#000000;" parent="WIyWlLk6GJQsqaUBKTNV-1" source="4Sw3aIR59aRq2CPispGW-48" target="4Sw3aIR59aRq2CPispGW-67" edge="1">
          <mxGeometry relative="1" as="geometry">
            <Array as="points">
              <mxPoint x="230" y="1210" />
            </Array>
          </mxGeometry>
        </mxCell>
        <mxCell id="4Sw3aIR59aRq2CPispGW-48" value="INSERT SPATIAL JOINS INTO ADDRESS_SPATIAL" style="whiteSpace=wrap;html=1;fillColor=#f8cecc;strokeColor=#b85450;shadow=0;strokeWidth=1;spacing=6;spacingTop=-4;" parent="WIyWlLk6GJQsqaUBKTNV-1" vertex="1">
          <mxGeometry x="160" y="1030" width="140" height="60" as="geometry" />
        </mxCell>
        <mxCell id="4Sw3aIR59aRq2CPispGW-70" value="" style="edgeStyle=orthogonalEdgeStyle;rounded=0;orthogonalLoop=1;jettySize=auto;html=1;fontSize=20;fontColor=#000000;" parent="WIyWlLk6GJQsqaUBKTNV-1" source="4Sw3aIR59aRq2CPispGW-50" target="4Sw3aIR59aRq2CPispGW-69" edge="1">
          <mxGeometry relative="1" as="geometry" />
        </mxCell>
        <mxCell id="4Sw3aIR59aRq2CPispGW-50" value="INSERT SPATIAL JOINS INTO ESRI_ADDRESS_SPATIAL" style="whiteSpace=wrap;html=1;fillColor=#e1d5e7;strokeColor=#9673a6;shadow=0;strokeWidth=1;spacing=6;spacingTop=-4;" parent="WIyWlLk6GJQsqaUBKTNV-1" vertex="1">
          <mxGeometry x="440" y="1030" width="160" height="60" as="geometry" />
        </mxCell>
        <mxCell id="4Sw3aIR59aRq2CPispGW-62" value="&lt;font color=&quot;#000000&quot;&gt;&amp;lt;geo&amp;gt;_ADDRESS_SPATIAL&lt;/font&gt;" style="rounded=1;whiteSpace=wrap;html=1;fontSize=20;fillColor=#e6d0de;gradientColor=#d5739d;strokeColor=#996185;" parent="WIyWlLk6GJQsqaUBKTNV-1" vertex="1">
          <mxGeometry x="414" y="670" width="280" height="60" as="geometry" />
        </mxCell>
        <mxCell id="4Sw3aIR59aRq2CPispGW-63" value="&lt;font color=&quot;#000000&quot;&gt;&amp;lt;vaccine&amp;gt;_MASTER_VACCINE&lt;/font&gt;" style="rounded=1;whiteSpace=wrap;html=1;fontSize=20;fillColor=#e6d0de;gradientColor=#d5739d;strokeColor=#996185;" parent="WIyWlLk6GJQsqaUBKTNV-1" vertex="1">
          <mxGeometry x="447" y="1350" width="280" height="60" as="geometry" />
        </mxCell>
        <mxCell id="4Sw3aIR59aRq2CPispGW-73" value="" style="edgeStyle=orthogonalEdgeStyle;rounded=0;orthogonalLoop=1;jettySize=auto;html=1;fontSize=20;fontColor=#000000;" parent="WIyWlLk6GJQsqaUBKTNV-1" source="4Sw3aIR59aRq2CPispGW-67" target="4Sw3aIR59aRq2CPispGW-72" edge="1">
          <mxGeometry relative="1" as="geometry" />
        </mxCell>
        <mxCell id="4Sw3aIR59aRq2CPispGW-67" value="COMBINE&lt;br&gt;ADDRESS_SPATIAL&lt;br&gt;&amp;amp;&lt;br&gt;MOST_RECENT_VAX" style="whiteSpace=wrap;html=1;fillColor=#f8cecc;strokeColor=#b85450;shadow=0;strokeWidth=1;spacing=6;spacingTop=-4;" parent="WIyWlLk6GJQsqaUBKTNV-1" vertex="1">
          <mxGeometry x="140" y="1160" width="180" height="70" as="geometry" />
        </mxCell>
        <mxCell id="4Sw3aIR59aRq2CPispGW-75" value="" style="edgeStyle=orthogonalEdgeStyle;rounded=0;orthogonalLoop=1;jettySize=auto;html=1;fontSize=20;fontColor=#000000;" parent="WIyWlLk6GJQsqaUBKTNV-1" source="4Sw3aIR59aRq2CPispGW-69" target="4Sw3aIR59aRq2CPispGW-74" edge="1">
          <mxGeometry relative="1" as="geometry" />
        </mxCell>
        <mxCell id="4Sw3aIR59aRq2CPispGW-69" value="COMBINE&lt;br&gt;ADDRESS_SPATIAL&lt;br&gt;&amp;amp;&lt;br&gt;MOST_RECENT_VAX" style="whiteSpace=wrap;html=1;fillColor=#e1d5e7;strokeColor=#9673a6;shadow=0;strokeWidth=1;spacing=6;spacingTop=-4;" parent="WIyWlLk6GJQsqaUBKTNV-1" vertex="1">
          <mxGeometry x="430" y="1160" width="180" height="70" as="geometry" />
        </mxCell>
        <mxCell id="4Sw3aIR59aRq2CPispGW-72" value="INSERT INTO&amp;nbsp;&lt;br&gt;MASTER_VACCINE" style="shape=hexagon;perimeter=hexagonPerimeter2;whiteSpace=wrap;html=1;fixedSize=1;fillColor=#f8cecc;strokeColor=#b85450;shadow=0;strokeWidth=1;spacing=6;spacingTop=-4;" parent="WIyWlLk6GJQsqaUBKTNV-1" vertex="1">
          <mxGeometry x="150" y="1475" width="160" height="80" as="geometry" />
        </mxCell>
        <mxCell id="4Sw3aIR59aRq2CPispGW-74" value="INSERT INTO ESRI_MASTER_ADDRESS" style="shape=hexagon;perimeter=hexagonPerimeter2;whiteSpace=wrap;html=1;fixedSize=1;fillColor=#e1d5e7;strokeColor=#9673a6;shadow=0;strokeWidth=1;spacing=6;spacingTop=-4;" parent="WIyWlLk6GJQsqaUBKTNV-1" vertex="1">
          <mxGeometry x="440" y="1470" width="160" height="80" as="geometry" />
        </mxCell>
        <mxCell id="W29NnXGGYYmJcmvvzEcG-5" value="" style="edgeStyle=orthogonalEdgeStyle;rounded=0;orthogonalLoop=1;jettySize=auto;html=1;fontSize=14;entryX=0;entryY=0.5;entryDx=0;entryDy=0;" edge="1" parent="WIyWlLk6GJQsqaUBKTNV-1" source="E9w0ZndzLkP_HaStfv7O-3" target="W29NnXGGYYmJcmvvzEcG-58">
          <mxGeometry relative="1" as="geometry">
            <mxPoint x="180" y="75" as="targetPoint" />
          </mxGeometry>
        </mxCell>
        <mxCell id="E9w0ZndzLkP_HaStfv7O-3" value="parse_new_records" style="rounded=1;whiteSpace=wrap;html=1;fontSize=12;glass=0;strokeWidth=1;shadow=0;fillColor=#d5e8d4;strokeColor=#82b366;" parent="WIyWlLk6GJQsqaUBKTNV-1" vertex="1">
          <mxGeometry x="20" y="60" width="120" height="30" as="geometry" />
        </mxCell>
        <mxCell id="E9w0ZndzLkP_HaStfv7O-5" value="insert new addresses" style="rounded=1;whiteSpace=wrap;html=1;fontSize=12;glass=0;strokeWidth=1;shadow=0;fillColor=#d5e8d4;strokeColor=#82b366;" parent="WIyWlLk6GJQsqaUBKTNV-1" vertex="1">
          <mxGeometry x="327" y="5" width="120" height="30" as="geometry" />
        </mxCell>
        <mxCell id="W29NnXGGYYmJcmvvzEcG-0" value="&lt;font style=&quot;font-size: 14px;&quot;&gt;lac_master_address&lt;/font&gt;" style="shape=datastore;whiteSpace=wrap;html=1;fontSize=18;fontSize=20;fillColor=#e6d0de;gradientColor=#d5739d;strokeColor=#996185;" vertex="1" parent="WIyWlLk6GJQsqaUBKTNV-1">
          <mxGeometry x="440" y="37.5" width="150" height="75" as="geometry" />
        </mxCell>
        <mxCell id="W29NnXGGYYmJcmvvzEcG-2" value="" style="edgeStyle=orthogonalEdgeStyle;rounded=0;orthogonalLoop=1;jettySize=auto;html=1;fontSize=14;" edge="1" parent="WIyWlLk6GJQsqaUBKTNV-1" source="W29NnXGGYYmJcmvvzEcG-1" target="E9w0ZndzLkP_HaStfv7O-3">
          <mxGeometry relative="1" as="geometry" />
        </mxCell>
        <mxCell id="W29NnXGGYYmJcmvvzEcG-1" value="Finish Snowflake Pull" style="rounded=1;whiteSpace=wrap;html=1;fontSize=12;glass=0;strokeWidth=1;shadow=0;fillColor=#d5e8d4;strokeColor=#82b366;" vertex="1" parent="WIyWlLk6GJQsqaUBKTNV-1">
          <mxGeometry x="20" y="10" width="120" height="30" as="geometry" />
        </mxCell>
        <mxCell id="W29NnXGGYYmJcmvvzEcG-24" value="Address Validation" style="horizontal=1;whiteSpace=wrap;html=1;fontSize=12;glass=0;strokeWidth=1;shadow=0;fillColor=#d5e8d4;strokeColor=#82b366;childLayout=treeLayout;swimlane;" vertex="1" parent="WIyWlLk6GJQsqaUBKTNV-1">
          <mxGeometry x="22.5" y="150" width="325" height="150" as="geometry" />
        </mxCell>
        <mxCell id="W29NnXGGYYmJcmvvzEcG-52" value="new_addresses_df" style="whiteSpace=wrap;html=1;fontSize=14;" vertex="1" parent="W29NnXGGYYmJcmvvzEcG-24">
          <mxGeometry x="90" y="30" width="140" height="30" as="geometry" />
        </mxCell>
        <mxCell id="W29NnXGGYYmJcmvvzEcG-40" value="Invalid_address_df" style="whiteSpace=wrap;html=1;fontSize=14;" vertex="1" parent="W29NnXGGYYmJcmvvzEcG-24">
          <mxGeometry x="10" y="110" width="128.5" height="30" as="geometry" />
        </mxCell>
        <mxCell id="W29NnXGGYYmJcmvvzEcG-41" value="" style="edgeStyle=elbowEdgeStyle;elbow=vertical;html=1;rounded=1;curved=0;sourcePerimeterSpacing=0;targetPerimeterSpacing=0;startSize=6;endSize=6;fontSize=14;" edge="1" parent="W29NnXGGYYmJcmvvzEcG-24" target="W29NnXGGYYmJcmvvzEcG-40">
          <mxGeometry relative="1" as="geometry">
            <mxPoint x="163.5" y="60" as="sourcePoint" />
          </mxGeometry>
        </mxCell>
        <mxCell id="W29NnXGGYYmJcmvvzEcG-39" value="" style="edgeStyle=elbowEdgeStyle;elbow=vertical;html=1;rounded=1;curved=0;sourcePerimeterSpacing=0;targetPerimeterSpacing=0;startSize=6;endSize=6;fontSize=14;" edge="1" parent="W29NnXGGYYmJcmvvzEcG-24" target="W29NnXGGYYmJcmvvzEcG-38">
          <mxGeometry relative="1" as="geometry">
            <mxPoint x="163.5" y="60" as="sourcePoint" />
          </mxGeometry>
        </mxCell>
        <mxCell id="W29NnXGGYYmJcmvvzEcG-38" value="Valid_address_df" style="whiteSpace=wrap;html=1;fontSize=14;" vertex="1" parent="W29NnXGGYYmJcmvvzEcG-24">
          <mxGeometry x="178.5" y="110" width="130" height="30" as="geometry" />
        </mxCell>
        <mxCell id="W29NnXGGYYmJcmvvzEcG-60" value="" style="edgeStyle=orthogonalEdgeStyle;rounded=0;orthogonalLoop=1;jettySize=auto;html=1;fontSize=14;entryX=0;entryY=0.5;entryDx=0;entryDy=0;" edge="1" parent="WIyWlLk6GJQsqaUBKTNV-1" source="W29NnXGGYYmJcmvvzEcG-58" target="W29NnXGGYYmJcmvvzEcG-0">
          <mxGeometry relative="1" as="geometry">
            <mxPoint x="400" y="75" as="targetPoint" />
          </mxGeometry>
        </mxCell>
        <mxCell id="W29NnXGGYYmJcmvvzEcG-58" value="DROP-CREATE most_recent_vax table" style="shape=ext;margin=3;double=1;whiteSpace=wrap;html=1;align=center;fontSize=14;fillColor=#dae8fc;strokeColor=#6c8ebf;" vertex="1" parent="WIyWlLk6GJQsqaUBKTNV-1">
          <mxGeometry x="200" y="45" width="120" height="60" as="geometry" />
        </mxCell>
        <mxCell id="W29NnXGGYYmJcmvvzEcG-67" value="Geocoding" style="horizontal=1;whiteSpace=wrap;html=1;fontSize=12;glass=0;strokeWidth=1;shadow=0;fillColor=#d5e8d4;strokeColor=#82b366;childLayout=treeLayout;swimlane;" vertex="1" parent="WIyWlLk6GJQsqaUBKTNV-1">
          <mxGeometry x="387.5" y="150" width="312.5" height="240" as="geometry" />
        </mxCell>
        <mxCell id="W29NnXGGYYmJcmvvzEcG-68" value="Valid_address_df" style="whiteSpace=wrap;html=1;fontSize=14;" vertex="1" parent="W29NnXGGYYmJcmvvzEcG-67">
          <mxGeometry x="90" y="30" width="140" height="30" as="geometry" />
        </mxCell>
        <mxCell id="W29NnXGGYYmJcmvvzEcG-70" value="" style="edgeStyle=elbowEdgeStyle;elbow=vertical;html=1;rounded=1;curved=0;targetPerimeterSpacing=0;startSize=6;endSize=6;fontSize=14;startArrow=none;" edge="1" parent="W29NnXGGYYmJcmvvzEcG-67" source="WIyWlLk6GJQsqaUBKTNV-6">
          <mxGeometry relative="1" as="geometry">
            <mxPoint x="163.5" y="60" as="sourcePoint" />
            <mxPoint x="74.25" y="110" as="targetPoint" />
          </mxGeometry>
        </mxCell>
        <mxCell id="W29NnXGGYYmJcmvvzEcG-71" value="" style="edgeStyle=elbowEdgeStyle;elbow=vertical;html=1;rounded=1;curved=0;targetPerimeterSpacing=0;startSize=6;endSize=6;fontSize=14;startArrow=none;" edge="1" parent="W29NnXGGYYmJcmvvzEcG-67" source="4Sw3aIR59aRq2CPispGW-0">
          <mxGeometry relative="1" as="geometry">
            <mxPoint x="163.5" y="60" as="sourcePoint" />
            <mxPoint x="243.5" y="110" as="targetPoint" />
          </mxGeometry>
        </mxCell>
        <mxCell id="W29NnXGGYYmJcmvvzEcG-84" value="" style="edgeStyle=elbowEdgeStyle;elbow=vertical;html=1;rounded=1;curved=0;sourcePerimeterSpacing=0;targetPerimeterSpacing=0;startSize=6;endSize=6;fontSize=14;" edge="1" parent="W29NnXGGYYmJcmvvzEcG-67">
          <mxGeometry relative="1" as="geometry">
            <mxPoint x="157.75" y="60" as="sourcePoint" />
            <mxPoint x="237.75" y="110" as="targetPoint" />
          </mxGeometry>
        </mxCell>
        <mxCell id="W29NnXGGYYmJcmvvzEcG-83" value="" style="edgeStyle=elbowEdgeStyle;elbow=vertical;html=1;rounded=1;curved=0;sourcePerimeterSpacing=0;targetPerimeterSpacing=0;startSize=6;endSize=6;fontSize=14;" edge="1" parent="W29NnXGGYYmJcmvvzEcG-67">
          <mxGeometry relative="1" as="geometry">
            <mxPoint x="157.75" y="60" as="sourcePoint" />
            <mxPoint x="68.5" y="110" as="targetPoint" />
          </mxGeometry>
        </mxCell>
        <mxCell id="W29NnXGGYYmJcmvvzEcG-90" value="" style="strokeWidth=2;html=1;shape=mxgraph.flowchart.annotation_2;align=left;labelPosition=right;pointerEvents=1;fontSize=14;rotation=-90;" vertex="1" parent="W29NnXGGYYmJcmvvzEcG-67">
          <mxGeometry x="127.5" y="70" width="50" height="185" as="geometry" />
        </mxCell>
        <mxCell id="4Sw3aIR59aRq2CPispGW-0" value="ESRI" style="rhombus;whiteSpace=wrap;html=1;shadow=0;fontFamily=Helvetica;fontSize=12;align=center;strokeWidth=1;spacing=6;spacingTop=-4;fillColor=#e1d5e7;strokeColor=#9673a6;" parent="W29NnXGGYYmJcmvvzEcG-67" vertex="1">
          <mxGeometry x="192.5" y="70" width="100" height="80" as="geometry" />
        </mxCell>
        <mxCell id="WIyWlLk6GJQsqaUBKTNV-6" value="Google" style="rhombus;whiteSpace=wrap;html=1;shadow=0;fontFamily=Helvetica;fontSize=12;align=center;strokeWidth=1;spacing=6;spacingTop=-4;fillColor=#f8cecc;strokeColor=#b85450;" parent="W29NnXGGYYmJcmvvzEcG-67" vertex="1">
          <mxGeometry x="12.5" y="70" width="100" height="80" as="geometry" />
        </mxCell>
        <mxCell id="W29NnXGGYYmJcmvvzEcG-57" value="DROP-CREATE&lt;br&gt;Geocoding table" style="shape=ext;margin=3;double=1;whiteSpace=wrap;html=1;align=center;fontSize=14;fillColor=#dae8fc;strokeColor=#6c8ebf;" vertex="1" parent="W29NnXGGYYmJcmvvzEcG-67">
          <mxGeometry x="90" y="170" width="120" height="60" as="geometry" />
        </mxCell>
        <mxCell id="W29NnXGGYYmJcmvvzEcG-76" value="" style="html=1;shadow=0;dashed=0;align=center;verticalAlign=middle;shape=mxgraph.arrows2.arrow;dy=0.76;dx=24.2;direction=south;notch=0;fontSize=14;rotation=-90;" vertex="1" parent="WIyWlLk6GJQsqaUBKTNV-1">
          <mxGeometry x="347.5" y="197.5" width="40" height="55" as="geometry" />
        </mxCell>
        <mxCell id="W29NnXGGYYmJcmvvzEcG-77" value="" style="html=1;shadow=0;dashed=0;align=center;verticalAlign=middle;shape=mxgraph.arrows2.arrow;dy=0.76;dx=24.2;direction=south;notch=0;fontSize=14;rotation=0;" vertex="1" parent="WIyWlLk6GJQsqaUBKTNV-1">
          <mxGeometry x="240" y="105" width="40" height="47.5" as="geometry" />
        </mxCell>
      </root>
    </mxGraphModel>
  </diagram>
</mxfile>
